<svg width="37" height="35" viewBox="0 0 37 35" fill="none" xmlns="http://www.w3.org/2000/svg">
<path d="M17.5 0.5H19.5C28.8888 0.5 36.5 8.11116 36.5 17.5C36.5 26.8888 28.8888 34.5 19.5 34.5H17.5C8.11116 34.5 0.5 26.8888 0.5 17.5C0.5 8.11116 8.11116 0.5 17.5 0.5Z" fill="#2C2C2C"/>
<path d="M17.5 0.5H19.5C28.8888 0.5 36.5 8.11116 36.5 17.5C36.5 26.8888 28.8888 34.5 19.5 34.5H17.5C8.11116 34.5 0.5 26.8888 0.5 17.5C0.5 8.11116 8.11116 0.5 17.5 0.5Z" stroke="#2C2C2C" stroke-linecap="round"/>
<path d="M18.5 9.16666L21.075 14.3833L26.8334 15.225L22.6667 19.2833L23.65 25.0167L18.5 22.3083L13.35 25.0167L14.3334 19.2833L10.1667 15.225L15.925 14.3833L18.5 9.16666Z" fill="#E8D6CF" stroke="#E8D6CF" stroke-width="2" stroke-linecap="round" stroke-linejoin="round"/>
</svg>
